<svg xmlns="http://www.w3.org/2000/svg" xmlns:xlink="http://www.w3.org/1999/xlink" xmlns:h5="http://www.w3.org/1999/xhtml" class="typst-doc" viewBox="0 0 1000 135.5859375" width="1000pt" height="135.5859375pt">
  <g>
    <g transform="translate(0 0)">
      <g class="typst-group">
        <g>
          <g transform="translate(-0 -0)">
            <path class="typst-shape" fill="#1e1e1e" d="M 4.5 -0.5 L 995.5 -0.5 L 995.5 0.5 L 4.5 0.5 Z"/>
          </g>
          <g transform="translate(30 30)">
            <g class="typst-group">
              <g>
                <g transform="translate(3 26.190234375)">
                  <g class="typst-text" transform="scale(1, -1)">
                    <g fill="#a0a0a0" fill-rule="nonzero">
                      <path d="M 2.53125 1.5937501 L 5.4750004 1.5937501 L 5.4750004 12.290626 L 2.30625 11.578125 L 2.30625 13.303125 L 5.45625 13.996876 L 7.3500004 13.996876 L 7.3500004 1.5937501 L 10.25625 1.5937501 L 10.25625 0 L 2.53125 0 L 2.53125 1.5937501 Z "/>
                    </g>
                  </g>
                </g>
                <g transform="translate(24.559375 0)">
                  <g class="typst-group">
                    <g>
                      <g transform="translate(0 30.29296875)">
                        <g class="typst-text" transform="scale(1, -1)">
                          <g fill="#d73a49" fill-rule="nonzero">
                            <path d="M 15.571289 22.792969 L 15.571289 20.551758 L 12.509766 20.551758 Q 11.05957 20.551758 10.495605 19.958496 Q 9.931641 19.365234 9.931641 17.856445 L 9.931641 16.40625 L 15.571289 16.40625 L 15.571289 14.311523 L 9.931641 14.311523 L 9.931641 0 L 7.236328 0 L 7.236328 14.311523 L 2.8564453 14.311523 L 2.8564453 16.40625 L 7.236328 16.40625 L 7.236328 17.548828 Q 7.236328 20.24414 8.474121 21.518555 Q 9.711914 22.792969 12.333984 22.792969 L 15.571289 22.792969 Z "/>
                          </g>
                          <g transform="translate(18.0615234375,0.0)" fill="#d73a49" fill-rule="nonzero">
                            <path d="M 9.0234375 14.516602 Q 6.9726563 14.516602 5.9179688 12.919922 Q 4.8632813 11.323242 4.8632813 8.188477 Q 4.8632813 5.0683594 5.9179688 3.4643555 Q 6.9726563 1.8603516 9.0234375 1.8603516 Q 11.088867 1.8603516 12.143555 3.4643555 Q 13.198242 5.0683594 13.198242 8.188477 Q 13.198242 11.323242 12.143555 12.919922 Q 11.088867 14.516602 9.0234375 14.516602 Z M 9.0234375 16.801758 Q 12.436523 16.801758 14.245605 14.589844 Q 16.054688 12.37793 16.054688 8.188477 Q 16.054688 3.984375 14.25293 1.7797852 Q 12.451172 -0.4248047 9.0234375 -0.4248047 Q 5.6103516 -0.4248047 3.8085938 1.7797852 Q 2.006836 3.984375 2.006836 8.188477 Q 2.006836 12.37793 3.8085938 14.589844 Q 5.6103516 16.801758 9.0234375 16.801758 Z "/>
                          </g>
                          <g transform="translate(36.123046875,0.0)" fill="#d73a49" fill-rule="nonzero">
                            <path d="M 16.918945 13.022461 Q 16.054688 13.696289 15.161133 14.003906 Q 14.267578 14.311523 13.198242 14.311523 Q 10.678711 14.311523 9.345703 12.729492 Q 8.012695 11.147461 8.012695 8.15918 L 8.012695 0 L 5.3027344 0 L 5.3027344 16.40625 L 8.012695 16.40625 L 8.012695 13.198242 Q 8.686523 14.941406 10.085449 15.871582 Q 11.484375 16.801758 13.40332 16.801758 Q 14.399414 16.801758 15.263672 16.552734 Q 16.12793 16.30371 16.918945 15.776367 L 16.918945 13.022461 Z "/>
                          </g>
                        </g>
                      </g>
                      <g transform="translate(54.1845703125 30.29296875)">
                        <g class="typst-text" transform="scale(1, -1)"/>
                      </g>
                      <g transform="translate(72.24609375 30.29296875)">
                        <g class="typst-text" transform="scale(1, -1)">
                          <g fill="#000000" fill-rule="nonzero">
                            <path d="M 3.75 16.40625 L 10.649414 16.40625 L 10.649414 2.0947266 L 15.996094 2.0947266 L 15.996094 0 L 2.6074219 0 L 2.6074219 2.0947266 L 7.9541016 2.0947266 L 7.9541016 14.311523 L 3.75 14.311523 L 3.75 16.40625 Z M 7.9541016 22.792969 L 10.649414 22.792969 L 10.649414 19.379883 L 7.9541016 19.379883 L 7.9541016 22.792969 Z "/>
                          </g>
                        </g>
                      </g>
                      <g transform="translate(90.3076171875 30.29296875)">
                        <g class="typst-text" transform="scale(1, -1)"/>
                      </g>
                      <g transform="translate(108.369140625 30.29296875)">
                        <g class="typst-text" transform="scale(1, -1)">
                          <g fill="#d73a49" fill-rule="nonzero">
                            <path d="M 3.75 16.40625 L 10.649414 16.40625 L 10.649414 2.0947266 L 15.996094 2.0947266 L 15.996094 0 L 2.6074219 0 L 2.6074219 2.0947266 L 7.9541016 2.0947266 L 7.9541016 14.311523 L 3.75 14.311523 L 3.75 16.40625 Z M 7.9541016 22.792969 L 10.649414 22.792969 L 10.649414 19.379883 L 7.9541016 19.379883 L 7.9541016 22.792969 Z "/>
                          </g>
                          <g transform="translate(18.0615234375,0.0)" fill="#d73a49" fill-rule="nonzero">
                            <path d="M 15.395508 10.166016 L 15.395508 0 L 12.685547 0 L 12.685547 10.166016 Q 12.685547 12.37793 11.90918 13.417969 Q 11.1328125 14.458008 9.477539 14.458008 Q 7.5878906 14.458008 6.569824 13.117676 Q 5.551758 11.777344 5.551758 9.272461 L 5.551758 0 L 2.8564453 0 L 2.8564453 16.40625 L 5.551758 16.40625 L 5.551758 13.9453125 Q 6.2695313 15.3515625 7.5 16.07666 Q 8.730469 16.801758 10.415039 16.801758 Q 12.919922 16.801758 14.157715 15.153809 Q 15.395508 13.505859 15.395508 10.166016 Z "/>
                          </g>
                        </g>
                      </g>
                      <g transform="translate(144.4921875 30.29296875)">
                        <g class="typst-text" transform="scale(1, -1)"/>
                      </g>
                      <g transform="translate(162.5537109375 30.29296875)">
                        <g class="typst-text" transform="scale(1, -1)">
                          <g fill="#4b69c6" fill-rule="nonzero">
                            <path d="M 16.918945 13.022461 Q 16.054688 13.696289 15.161133 14.003906 Q 14.267578 14.311523 13.198242 14.311523 Q 10.678711 14.311523 9.345703 12.729492 Q 8.012695 11.147461 8.012695 8.15918 L 8.012695 0 L 5.3027344 0 L 5.3027344 16.40625 L 8.012695 16.40625 L 8.012695 13.198242 Q 8.686523 14.941406 10.085449 15.871582 Q 11.484375 16.801758 13.40332 16.801758 Q 14.399414 16.801758 15.263672 16.552734 Q 16.12793 16.30371 16.918945 15.776367 L 16.918945 13.022461 Z "/>
                          </g>
                          <g transform="translate(18.0615234375,0.0)" fill="#4b69c6" fill-rule="nonzero">
                            <path d="M 10.283203 8.24707 L 9.389648 8.24707 Q 7.03125 8.24707 5.8374023 7.4194336 Q 4.6435547 6.591797 4.6435547 4.951172 Q 4.6435547 3.4716797 5.5371094 2.6513672 Q 6.430664 1.8310547 8.012695 1.8310547 Q 10.239258 1.8310547 11.513672 3.3764648 Q 12.788086 4.921875 12.802734 7.6464844 L 12.802734 8.24707 L 10.283203 8.24707 Z M 15.512695 9.360352 L 15.512695 0 L 12.802734 0 L 12.802734 2.4316406 Q 11.938477 0.9667969 10.627441 0.2709961 Q 9.316406 -0.4248047 7.4414063 -0.4248047 Q 4.9365234 -0.4248047 3.4423828 0.98876953 Q 1.9482422 2.4023438 1.9482422 4.7753906 Q 1.9482422 7.5146484 3.786621 8.935547 Q 5.625 10.356445 9.18457 10.356445 L 12.802734 10.356445 L 12.802734 10.78125 Q 12.788086 12.744141 11.806641 13.630371 Q 10.825195 14.516602 8.671875 14.516602 Q 7.294922 14.516602 5.888672 14.121094 Q 4.482422 13.725586 3.149414 12.963867 L 3.149414 15.65918 Q 4.6435547 16.230469 6.0131836 16.516113 Q 7.3828125 16.801758 8.671875 16.801758 Q 10.708008 16.801758 12.150879 16.201172 Q 13.59375 15.600586 14.487305 14.399414 Q 15.043945 13.666992 15.27832 12.590332 Q 15.512695 11.513672 15.512695 9.360352 Z "/>
                          </g>
                          <g transform="translate(36.123046875,0.0)" fill="#4b69c6" fill-rule="nonzero">
                            <path d="M 15.395508 10.166016 L 15.395508 0 L 12.685547 0 L 12.685547 10.166016 Q 12.685547 12.37793 11.90918 13.417969 Q 11.1328125 14.458008 9.477539 14.458008 Q 7.5878906 14.458008 6.569824 13.117676 Q 5.551758 11.777344 5.551758 9.272461 L 5.551758 0 L 2.8564453 0 L 2.8564453 16.40625 L 5.551758 16.40625 L 5.551758 13.9453125 Q 6.2695313 15.3515625 7.5 16.07666 Q 8.730469 16.801758 10.415039 16.801758 Q 12.919922 16.801758 14.157715 15.153809 Q 15.395508 13.505859 15.395508 10.166016 Z "/>
                          </g>
                          <g transform="translate(54.1845703125,0.0)" fill="#4b69c6" fill-rule="nonzero">
                            <path d="M 12.568359 8.334961 Q 12.568359 11.3671875 11.57959 12.941895 Q 10.59082 14.516602 8.701172 14.516602 Q 6.723633 14.516602 5.6835938 12.941895 Q 4.6435547 11.3671875 4.6435547 8.334961 Q 4.6435547 5.3027344 5.690918 3.713379 Q 6.7382813 2.1240234 8.730469 2.1240234 Q 10.59082 2.1240234 11.57959 3.7207031 Q 12.568359 5.317383 12.568359 8.334961 Z M 15.263672 1.0546875 Q 15.263672 -2.6367188 13.520508 -4.5410156 Q 11.777344 -6.4453125 8.393555 -6.4453125 Q 7.2802734 -6.4453125 6.064453 -6.2402344 Q 4.848633 -6.0351563 3.6328125 -5.6396484 L 3.6328125 -2.9736328 Q 5.0683594 -3.647461 6.2402344 -3.9697266 Q 7.4121094 -4.291992 8.393555 -4.291992 Q 10.576172 -4.291992 11.572266 -3.1054688 Q 12.568359 -1.9189453 12.568359 0.6591797 L 12.568359 0.7763672 L 12.568359 2.6074219 Q 11.923828 1.2304688 10.810547 0.5566406 Q 9.697266 -0.1171875 8.100586 -0.1171875 Q 5.229492 -0.1171875 3.515625 2.1826172 Q 1.8017578 4.482422 1.8017578 8.334961 Q 1.8017578 12.202148 3.515625 14.501953 Q 5.229492 16.801758 8.100586 16.801758 Q 9.682617 16.801758 10.78125 16.171875 Q 11.879883 15.541992 12.568359 14.223633 L 12.568359 16.347656 L 15.263672 16.347656 L 15.263672 1.0546875 Z "/>
                          </g>
                          <g transform="translate(72.24609375,0.0)" fill="#4b69c6" fill-rule="nonzero">
                            <path d="M 16.289063 8.876953 L 16.289063 7.5585938 L 4.614258 7.5585938 L 4.614258 7.470703 Q 4.614258 4.790039 6.0131836 3.3251953 Q 7.4121094 1.8603516 9.9609375 1.8603516 Q 11.25 1.8603516 12.65625 2.2705078 Q 14.0625 2.680664 15.65918 3.515625 L 15.65918 0.83496094 Q 14.121094 0.20507813 12.692871 -0.10986328 Q 11.264648 -0.4248047 9.931641 -0.4248047 Q 6.1083984 -0.4248047 3.9550781 1.8676758 Q 1.8017578 4.1601563 1.8017578 8.188477 Q 1.8017578 12.114258 3.9111328 14.458008 Q 6.020508 16.801758 9.536133 16.801758 Q 12.670898 16.801758 14.47998 14.677734 Q 16.289063 12.553711 16.289063 8.876953 Z M 13.59375 9.667969 Q 13.535156 12.041016 12.473145 13.278809 Q 11.411133 14.516602 9.418945 14.516602 Q 7.470703 14.516602 6.2109375 13.227539 Q 4.951172 11.938477 4.716797 9.65332 L 13.59375 9.667969 Z "/>
                          </g>
                        </g>
                      </g>
                      <g transform="translate(252.861328125 30.29296875)">
                        <g class="typst-text" transform="scale(1, -1)">
                          <g fill="#000000" fill-rule="nonzero">
                            <path d="M 12.963867 22.763672 Q 11.015625 19.423828 10.056152 16.105957 Q 9.09668 12.788086 9.09668 9.418945 Q 9.09668 6.064453 10.056152 2.7392578 Q 11.015625 -0.5859375 12.963867 -3.9550781 L 10.620117 -3.9550781 Q 8.408203 -0.46875 7.3242188 2.8344727 Q 6.2402344 6.1376953 6.2402344 9.418945 Q 6.2402344 12.685547 7.3242188 15.996094 Q 8.408203 19.30664 10.620117 22.763672 L 12.963867 22.763672 Z "/>
                          </g>
                        </g>
                      </g>
                      <g transform="translate(270.9228515625 30.29296875)">
                        <g class="typst-text" transform="scale(1, -1)">
                          <g fill="#b60157" fill-rule="nonzero">
                            <path d="M 7.0751953 10.986328 Q 7.0751953 11.791992 7.63916 12.37793 Q 8.203125 12.963867 8.994141 12.963867 Q 9.814453 12.963867 10.400391 12.37793 Q 10.986328 11.791992 10.986328 10.986328 Q 10.986328 10.166016 10.407715 9.594727 Q 9.829102 9.0234375 8.994141 9.0234375 Q 8.173828 9.0234375 7.6245117 9.580078 Q 7.0751953 10.136719 7.0751953 10.986328 Z M 9.0234375 19.921875 Q 6.958008 19.921875 5.9399414 17.695313 Q 4.921875 15.46875 4.921875 10.913086 Q 4.921875 6.3720703 5.9399414 4.145508 Q 6.958008 1.9189453 9.0234375 1.9189453 Q 11.103516 1.9189453 12.121582 4.145508 Q 13.139648 6.3720703 13.139648 10.913086 Q 13.139648 15.46875 12.121582 17.695313 Q 11.103516 19.921875 9.0234375 19.921875 Z M 9.0234375 22.265625 Q 12.524414 22.265625 14.318848 19.394531 Q 16.113281 16.523438 16.113281 10.913086 Q 16.113281 5.317383 14.318848 2.446289 Q 12.524414 -0.4248047 9.0234375 -0.4248047 Q 5.522461 -0.4248047 3.7353516 2.446289 Q 1.9482422 5.317383 1.9482422 10.913086 Q 1.9482422 16.523438 3.7353516 19.394531 Q 5.522461 22.265625 9.0234375 22.265625 Z "/>
                          </g>
                        </g>
                      </g>
                      <g transform="translate(288.984375 30.29296875)">
                        <g class="typst-text" transform="scale(1, -1)">
                          <g fill="#000000" fill-rule="nonzero">
                            <path d="M 7.3535156 4.4384766 L 11.044922 4.4384766 L 11.044922 1.40625 L 8.15918 -4.2041016 L 5.9033203 -4.2041016 L 7.3535156 1.40625 L 7.3535156 4.4384766 Z "/>
                          </g>
                        </g>
                      </g>
                      <g transform="translate(307.0458984375 30.29296875)">
                        <g class="typst-text" transform="scale(1, -1)">
                          <g fill="#b60157" fill-rule="nonzero">
                            <path d="M 3.9550781 2.4902344 L 8.5546875 2.4902344 L 8.5546875 19.204102 L 3.6035156 18.09082 L 3.6035156 20.786133 L 8.525391 21.870117 L 11.484375 21.870117 L 11.484375 2.4902344 L 16.02539 2.4902344 L 16.02539 0 L 3.9550781 0 L 3.9550781 2.4902344 Z "/>
                          </g>
                          <g transform="translate(18.0615234375,0.0)" fill="#b60157" fill-rule="nonzero">
                            <path d="M 7.0751953 10.986328 Q 7.0751953 11.791992 7.63916 12.37793 Q 8.203125 12.963867 8.994141 12.963867 Q 9.814453 12.963867 10.400391 12.37793 Q 10.986328 11.791992 10.986328 10.986328 Q 10.986328 10.166016 10.407715 9.594727 Q 9.829102 9.0234375 8.994141 9.0234375 Q 8.173828 9.0234375 7.6245117 9.580078 Q 7.0751953 10.136719 7.0751953 10.986328 Z M 9.0234375 19.921875 Q 6.958008 19.921875 5.9399414 17.695313 Q 4.921875 15.46875 4.921875 10.913086 Q 4.921875 6.3720703 5.9399414 4.145508 Q 6.958008 1.9189453 9.0234375 1.9189453 Q 11.103516 1.9189453 12.121582 4.145508 Q 13.139648 6.3720703 13.139648 10.913086 Q 13.139648 15.46875 12.121582 17.695313 Q 11.103516 19.921875 9.0234375 19.921875 Z M 9.0234375 22.265625 Q 12.524414 22.265625 14.318848 19.394531 Q 16.113281 16.523438 16.113281 10.913086 Q 16.113281 5.317383 14.318848 2.446289 Q 12.524414 -0.4248047 9.0234375 -0.4248047 Q 5.522461 -0.4248047 3.7353516 2.446289 Q 1.9482422 5.317383 1.9482422 10.913086 Q 1.9482422 16.523438 3.7353516 19.394531 Q 5.522461 22.265625 9.0234375 22.265625 Z "/>
                          </g>
                        </g>
                      </g>
                      <g transform="translate(343.1689453125 30.29296875)">
                        <g class="typst-text" transform="scale(1, -1)">
                          <g fill="#000000" fill-rule="nonzero">
                            <path d="M 5.0976563 22.763672 L 7.4414063 22.763672 Q 9.65332 19.30664 10.737305 15.996094 Q 11.821289 12.685547 11.821289 9.418945 Q 11.821289 6.123047 10.737305 2.8125 Q 9.65332 -0.49804688 7.4414063 -3.9550781 L 5.0976563 -3.9550781 Q 7.0458984 -0.5566406 8.005371 2.7685547 Q 8.964844 6.09375 8.964844 9.418945 Q 8.964844 12.758789 8.005371 16.083984 Q 7.0458984 19.40918 5.0976563 22.763672 Z "/>
                          </g>
                        </g>
                      </g>
                      <g transform="translate(361.23046875 30.29296875)">
                        <g class="typst-text" transform="scale(1, -1)">
                          <g fill="#000000" fill-rule="nonzero">
                            <path d="M 7.163086 15.571289 L 10.854492 15.571289 L 10.854492 11.1328125 L 7.163086 11.1328125 L 7.163086 15.571289 Z M 7.163086 4.4677734 L 10.854492 4.4677734 L 10.854492 0 L 7.163086 0 L 7.163086 4.4677734 Z "/>
                          </g>
                        </g>
                      </g>
                    </g>
                  </g>
                </g>
                <g transform="translate(0 37.79296875)">
                  <g class="typst-group">
                    <g>
                      <g transform="translate(3 26.190234375)">
                        <g class="typst-text" transform="scale(1, -1)">
                          <g fill="#a0a0a0" fill-rule="nonzero">
                            <path d="M 3.496875 1.5937501 L 9.928125 1.5937501 L 9.928125 0 L 1.4250001 0 L 1.4250001 1.5937501 Q 3.1781251 3.4406252 4.4906254 4.8562503 Q 5.8031254 6.2718754 6.3 6.853125 Q 7.2375 7.9968753 7.565625 8.704688 Q 7.89375 9.4125 7.89375 10.153126 Q 7.89375 11.325001 7.2046876 11.990625 Q 6.5156255 12.656251 5.315625 12.656251 Q 4.4625 12.656251 3.525 12.346875 Q 2.5875 12.0375 1.5375 11.409375 L 1.5375 13.321876 Q 2.5031252 13.781251 3.4359376 14.015626 Q 4.36875 14.250001 5.2781253 14.250001 Q 7.33125 14.250001 8.582813 13.157813 Q 9.834375 12.065625 9.834375 10.293751 Q 9.834375 9.39375 9.417188 8.493751 Q 9 7.5937505 8.0625 6.5062504 Q 7.5375004 5.8968754 6.539063 4.8187504 Q 5.540625 3.7406251 3.496875 1.5937501 Z "/>
                          </g>
                        </g>
                      </g>
                      <g transform="translate(24.559375 30.29296875)">
                        <g class="typst-text" transform="scale(1, -1)"/>
                      </g>
                      <g transform="translate(60.682421874999996 30.29296875)">
                        <g class="typst-text" transform="scale(1, -1)">
                          <g fill="#4b69c6" fill-rule="nonzero">
                            <path d="M 5.493164 2.0654297 L 5.493164 -6.2402344 L 2.7832031 -6.2402344 L 2.7832031 16.40625 L 5.493164 16.40625 L 5.493164 14.311523 Q 6.166992 15.527344 7.2875977 16.16455 Q 8.408203 16.801758 9.873047 16.801758 Q 12.84668 16.801758 14.538574 14.501953 Q 16.230469 12.202148 16.230469 8.129883 Q 16.230469 4.1308594 14.53125 1.8530273 Q 12.832031 -0.4248047 9.873047 -0.4248047 Q 8.378906 -0.4248047 7.258301 0.21240234 Q 6.1376953 0.8496094 5.493164 2.0654297 Z M 13.40332 8.188477 Q 13.40332 11.323242 12.414551 12.919922 Q 11.425781 14.516602 9.477539 14.516602 Q 7.5146484 14.516602 6.5039063 12.912598 Q 5.493164 11.308594 5.493164 8.188477 Q 5.493164 5.083008 6.5039063 3.4716797 Q 7.5146484 1.8603516 9.477539 1.8603516 Q 11.425781 1.8603516 12.414551 3.4570313 Q 13.40332 5.053711 13.40332 8.188477 Z "/>
                          </g>
                          <g transform="translate(18.0615234375,0.0)" fill="#4b69c6" fill-rule="nonzero">
                            <path d="M 16.918945 13.022461 Q 16.054688 13.696289 15.161133 14.003906 Q 14.267578 14.311523 13.198242 14.311523 Q 10.678711 14.311523 9.345703 12.729492 Q 8.012695 11.147461 8.012695 8.15918 L 8.012695 0 L 5.3027344 0 L 5.3027344 16.40625 L 8.012695 16.40625 L 8.012695 13.198242 Q 8.686523 14.941406 10.085449 15.871582 Q 11.484375 16.801758 13.40332 16.801758 Q 14.399414 16.801758 15.263672 16.552734 Q 16.12793 16.30371 16.918945 15.776367 L 16.918945 13.022461 Z "/>
                          </g>
                          <g transform="translate(36.123046875,0.0)" fill="#4b69c6" fill-rule="nonzero">
                            <path d="M 3.75 16.40625 L 10.649414 16.40625 L 10.649414 2.0947266 L 15.996094 2.0947266 L 15.996094 0 L 2.6074219 0 L 2.6074219 2.0947266 L 7.9541016 2.0947266 L 7.9541016 14.311523 L 3.75 14.311523 L 3.75 16.40625 Z M 7.9541016 22.792969 L 10.649414 22.792969 L 10.649414 19.379883 L 7.9541016 19.379883 L 7.9541016 22.792969 Z "/>
                          </g>
                          <g transform="translate(54.1845703125,0.0)" fill="#4b69c6" fill-rule="nonzero">
                            <path d="M 15.395508 10.166016 L 15.395508 0 L 12.685547 0 L 12.685547 10.166016 Q 12.685547 12.37793 11.90918 13.417969 Q 11.1328125 14.458008 9.477539 14.458008 Q 7.5878906 14.458008 6.569824 13.117676 Q 5.551758 11.777344 5.551758 9.272461 L 5.551758 0 L 2.8564453 0 L 2.8564453 16.40625 L 5.551758 16.40625 L 5.551758 13.9453125 Q 6.2695313 15.3515625 7.5 16.07666 Q 8.730469 16.801758 10.415039 16.801758 Q 12.919922 16.801758 14.157715 15.153809 Q 15.395508 13.505859 15.395508 10.166016 Z "/>
                          </g>
                          <g transform="translate(72.24609375,0.0)" fill="#4b69c6" fill-rule="nonzero">
                            <path d="M 8.994141 21.064453 L 8.994141 16.40625 L 15.1171875 16.40625 L 15.1171875 14.311523 L 8.994141 14.311523 L 8.994141 5.4052734 Q 8.994141 3.5888672 9.682617 2.8710938 Q 10.371094 2.1533203 12.084961 2.1533203 L 15.1171875 2.1533203 L 15.1171875 0 L 11.821289 0 Q 8.7890625 0 7.5439453 1.2158203 Q 6.298828 2.4316406 6.298828 5.4052734 L 6.298828 14.311523 L 1.9189453 14.311523 L 1.9189453 16.40625 L 6.298828 16.40625 L 6.298828 21.064453 L 8.994141 21.064453 Z "/>
                          </g>
                        </g>
                      </g>
                      <g transform="translate(150.99003906250002 30.29296875)">
                        <g class="typst-text" transform="scale(1, -1)">
                          <g fill="#000000" fill-rule="nonzero">
                            <path d="M 12.963867 22.763672 Q 11.015625 19.423828 10.056152 16.105957 Q 9.09668 12.788086 9.09668 9.418945 Q 9.09668 6.064453 10.056152 2.7392578 Q 11.015625 -0.5859375 12.963867 -3.9550781 L 10.620117 -3.9550781 Q 8.408203 -0.46875 7.3242188 2.8344727 Q 6.2402344 6.1376953 6.2402344 9.418945 Q 6.2402344 12.685547 7.3242188 15.996094 Q 8.408203 19.30664 10.620117 22.763672 L 12.963867 22.763672 Z "/>
                          </g>
                        </g>
                      </g>
                      <g transform="translate(169.05156250000002 30.29296875)">
                        <g class="typst-text" transform="scale(1, -1)">
                          <g fill="#000000" fill-rule="nonzero">
                            <path d="M 3.75 16.40625 L 10.649414 16.40625 L 10.649414 2.0947266 L 15.996094 2.0947266 L 15.996094 0 L 2.6074219 0 L 2.6074219 2.0947266 L 7.9541016 2.0947266 L 7.9541016 14.311523 L 3.75 14.311523 L 3.75 16.40625 Z M 7.9541016 22.792969 L 10.649414 22.792969 L 10.649414 19.379883 L 7.9541016 19.379883 L 7.9541016 22.792969 Z "/>
                          </g>
                        </g>
                      </g>
                      <g transform="translate(187.11308593750002 30.29296875)">
                        <g class="typst-text" transform="scale(1, -1)">
                          <g fill="#000000" fill-rule="nonzero">
                            <path d="M 5.0976563 22.763672 L 7.4414063 22.763672 Q 9.65332 19.30664 10.737305 15.996094 Q 11.821289 12.685547 11.821289 9.418945 Q 11.821289 6.123047 10.737305 2.8125 Q 9.65332 -0.49804688 7.4414063 -3.9550781 L 5.0976563 -3.9550781 Q 7.0458984 -0.5566406 8.005371 2.7685547 Q 8.964844 6.09375 8.964844 9.418945 Q 8.964844 12.758789 8.005371 16.083984 Q 7.0458984 19.40918 5.0976563 22.763672 Z "/>
                          </g>
                        </g>
                      </g>
                    </g>
                  </g>
                </g>
              </g>
            </g>
          </g>
        </g>
      </g>
    </g>
  </g>
</svg>
